<?xml version="1.0" encoding="UTF-8"?>
<!DOCTYPE svg PUBLIC "-//W3C//DTD SVG 1.1//EN" "http://www.w3.org/Graphics/SVG/1.1/DTD/svg11.dtd">
<!-- Creator: CorelDRAW 2018 (64-Bit) -->
<svg xmlns="http://www.w3.org/2000/svg" xml:space="preserve" width="10in" height="10in" version="1.1" style="shape-rendering:geometricPrecision; text-rendering:geometricPrecision; image-rendering:optimizeQuality; fill-rule:evenodd; clip-rule:evenodd"
viewBox="0 0 10000 10000"
 xmlns:xlink="http://www.w3.org/1999/xlink">
 <defs>
  <style type="text/css">
   <![CDATA[
    .fil0 {fill:black}
    .fil2 {fill:#C29602}
    .fil4 {fill:#D9D9D9}
    .fil1 {fill:#F7C003}
    .fil3 {fill:white}
    .fil5 {fill:white;fill-rule:nonzero}
   ]]>
  </style>
     <mask id="id0">
  <linearGradient id="id1" gradientUnits="userSpaceOnUse" x1="4058.86" y1="5528.5" x2="5699.17" y2="5517.3">
   <stop offset="0" style="stop-opacity:0; stop-color:white"/>
   <stop offset="1" style="stop-opacity:1; stop-color:white"/>
  </linearGradient>
      <rect style="fill:url(#id1)" x="4055.39" y="5362.7" width="2085.16" height="331.61"/>
     </mask>
     <mask id="id2">
  <linearGradient id="id3" gradientUnits="userSpaceOnUse" x1="4830.66" y1="4836.26" x2="4826.81" y2="3119.36">
   <stop offset="0" style="stop-opacity:0; stop-color:white"/>
   <stop offset="0.25098" style="stop-opacity:-127.502; stop-color:white"/>
   <stop offset="1" style="stop-opacity:1; stop-color:white"/>
  </linearGradient>
      <rect style="fill:url(#id3)" x="3569.02" y="3220.83" width="2370.54" height="1925.3"/>
     </mask>
     <mask id="id4">
  <linearGradient id="id5" gradientUnits="userSpaceOnUse" x1="6035.23" y1="3804.91" x2="6055.21" y2="4699.14">
   <stop offset="0" style="stop-opacity:0; stop-color:white"/>
   <stop offset="0.341176" style="stop-opacity:-127.502; stop-color:white"/>
   <stop offset="1" style="stop-opacity:1; stop-color:white"/>
  </linearGradient>
      <rect style="fill:url(#id5)" x="5889.41" y="3413.14" width="326.67" height="2279.99"/>
     </mask>
     <mask id="id6">
  <linearGradient id="id7" gradientUnits="userSpaceOnUse" x1="5291.19" y1="3454.84" x2="4945.92" y2="2997.9">
   <stop offset="0" style="stop-opacity:0; stop-color:white"/>
   <stop offset="0.658824" style="stop-opacity:-127.502; stop-color:white"/>
   <stop offset="1" style="stop-opacity:1; stop-color:white"/>
  </linearGradient>
      <rect style="fill:url(#id7)" x="4816.14" y="2774.77" width="2130.49" height="630.91"/>
     </mask>
 </defs>
 <g id="Layer_x0020_1">
  <metadata id="CorelCorpID_0Corel-Layer"/>
  <rect class="fil0" x="-0" y="-0.01" width="10000" height="10000"/>
  <g id="_1725059163968">
   <g>
    <path class="fil1" d="M4729.33 2676.12c0,0 -284.76,142.38 -207.32,484.58 0,0 61.25,249.17 413.44,364.07 0,0 -118.69,-5.85 -270.57,2.12 -210.73,11.04 -492.4,154.55 -578.72,542.42 0,0 -98.88,583.35 525.58,768.19 0,0 350.38,-2.62 437.81,-0.98 60.59,1.14 137.4,-1.39 220.44,1.14 36.45,1.11 73.26,9.28 110.06,18.48 119.89,29.96 744.52,140.14 757.02,834.54l-2100.7 0.16c0,0 -914.35,-272.68 -979.3,-1526.6 0,0 -39.96,-1084.06 959.18,-1483.72l713.08 -4.39z"/>
    <path class="fil2" style="mask:url(#id0)" d="M6075.91 5366.17c36.2,90.81 58.89,197.91 61.17,324.51l-2078.21 0.16 0 -324.67 2017.04 0z"/>
    <path class="fil2" style="mask:url(#id2)" d="M4548.16 3224.3c42.52,81.68 147.41,222.21 387.29,300.47 0,0 -118.69,-5.85 -270.57,2.12 -210.73,11.04 -492.4,154.55 -578.72,542.42 0,0 -93.88,598.33 525.58,768.19 0,0 350.38,-2.62 437.81,-0.98 60.59,1.14 137.4,-1.39 220.44,1.14 36.45,1.11 73.26,9.28 110.06,18.48 76.52,19.12 358.67,70.96 556.03,286.51l-1404.42 0c-527.54,0 -959.17,-431.63 -959.17,-959.18l0 0c0,-527.54 431.63,-959.17 959.17,-959.17l16.49 0z"/>
    <path class="fil3" d="M4971.7 2666.38c0,0 -359.7,56.2 -367.19,424.64 0,0 -14.72,307.31 330.64,431.6l381.89 -0.72 0.02 1238.94c0,0 820.17,41.59 819.96,928.81l65.14 0 0.39 -2000.38c0,0 21.87,-74.94 66.2,-104.29l291 0c0,0 317.21,-13.74 383.41,-427.13l0 -491.45 -1971.46 -0.02z"/>
    <path class="fil4" style="mask:url(#id4)" d="M5892.88 5020.84c136.94,137.69 244.21,347.91 244.13,668.81l65.14 0 0.39 -2000.38c0,0 3.34,-11.45 10.06,-27.15l0 -245.52 -319.72 0 0 1604.23z"/>
    <path class="fil4" style="mask:url(#id6)" d="M6855.5 3398.72c38.97,-59.39 71.13,-137.68 87.66,-240.87l0 -346.14c-39.09,-21.32 -83.83,-33.47 -131.26,-33.47l-1716.52 0c-151.67,0 -275.76,124.09 -275.76,275.76l0 72.44c0,151.67 124.09,275.76 275.76,275.76l1716.52 0c14.83,0 29.39,-1.2 43.6,-3.48z"/>
   </g>
   <path class="fil5" d="M2227.52 6284.02c106.58,0 173.89,70.12 186.05,191.66l4.67 0 0 -160.81c-55.16,-1.87 -107.51,-41.13 -191.66,-41.13 -134.63,0 -262.71,100.04 -262.71,266.45 0,142.11 94.43,240.27 235.6,240.27 119.67,0 205.68,-70.12 241.21,-166.41l-3.74 -1.87c-41.14,87.88 -115.93,138.37 -208.49,138.37 -126.21,0 -205.68,-93.49 -205.68,-230.92 0,-136.5 78.54,-235.6 204.75,-235.6zm399.2 165.48c0,-56.09 42.07,-141.17 120.61,-141.17 42.07,0 79.46,25.24 104.71,70.12l17.76 -71.05c-17.76,-17.76 -48.61,-33.66 -87.88,-33.66 -74.79,0 -136.5,58.9 -155.2,126.21l0 -116.87 -4.67 -4.67 -143.98 27.11 0 4.67 93.49 -0.93 0 446.89 -93.49 16.83 0 4.67 242.14 0 0 -4.67 -93.49 -16.83 0 -306.65zm318.8 -2.81c23.37,-86.01 82.28,-163.61 177.63,-163.61 106.58,0 159.87,98.17 159.87,158 0,36.46 -19.63,47.68 -49.55,47.68 -59.83,0 -163.61,-46.74 -245.88,-46.74 -14.96,0 -28.98,0.93 -42.07,4.67zm-12.15 86.01c0,-24.31 2.81,-50.48 9.35,-75.73 13.09,-2.8 26.18,-4.67 40.2,-4.67 93.49,0 215.03,57.96 287.95,57.96 40.2,0 65.44,-16.83 65.44,-68.25 0,-101.91 -98.17,-168.28 -214.09,-168.28 -146.78,0 -247.75,107.52 -247.75,260.84 0,147.72 94.43,245.88 235.6,245.88 119.67,0 205.68,-70.12 241.21,-166.41l-3.74 -1.87c-41.14,87.88 -115.93,138.37 -208.49,138.37 -126.21,0 -205.68,-93.49 -205.68,-217.83zm847.96 -3.74c-53.29,147.71 -139.3,221.57 -223.44,221.57 -70.12,0 -115.93,-50.48 -115.93,-103.78 0,-96.3 147.72,-160.8 339.37,-173.89l0 56.1zm133.69 123.41c-15.89,53.29 -40.2,74.8 -57.03,74.8 -12.15,0 -21.5,-11.22 -21.5,-30.85l0 -246.81c0,-116.87 -100.97,-176.7 -202.87,-176.7 -82.28,0 -164.55,38.33 -198.2,115.93l7.48 5.61c28.05,-64.51 102.84,-100.04 175.76,-100.04 83.21,0 162.67,46.74 162.67,148.65l0 19.63c-185.11,17.76 -392.66,60.77 -392.66,192.59 0,72.92 63.57,131.82 139.3,131.82 97.23,0 215.03,-98.17 253.36,-230.93l0 57.96c0,77.6 1.87,163.61 50.49,163.61 30.85,0 65.44,-35.53 88.81,-123.41l-5.61 -1.87zm158.94 -359.94l117.8 0 8.41 -9.35 -126.21 0 0 -159.87 -6.54 0c0,108.45 -61.7,159.87 -122.47,159.87l-11.22 0 -3.74 9.35 21.5 0c46.74,0 67.31,23.37 67.31,74.8l0 326.28c0,57.96 30.85,93.49 82.27,93.49 62.64,0 100.97,-54.22 111.26,-86.95l-2.81 -5.61c-9.35,19.63 -36.46,58.9 -78.53,58.9 -33.66,0 -57.03,-25.24 -57.03,-65.44l0 -395.47zm277.67 -60.77c14.02,-5.61 43.94,-38.33 43.94,-70.12 0,-25.24 -19.63,-39.27 -41.14,-39.27 -26.18,0 -40.2,20.57 -40.2,40.2 0,16.83 11.22,34.59 31.79,34.59 9.35,0 19.63,-3.74 25.24,-11.22 -3.74,25.24 -14.96,39.26 -20.57,43l0.94 2.81zm32.72 51.42l-143.98 27.11 0 4.67 93.49 -0.93 0 442.21 -93.49 16.83 0 4.67 242.14 0 0 -4.67 -93.49 -16.83 0 -468.39 -4.67 -4.68zm572.17 17.76l-172.02 405.75 -176.7 -405.75 119.67 -13.09 0 -4.68 -254.3 0 0 4.68 71.06 13.09 210.35 476.81 8.41 0 202.88 -475.87 78.53 -14.02 0 -4.68 -210.35 0 0 4.68 122.47 13.09zm112.19 145.85c23.37,-86.01 82.28,-163.61 177.63,-163.61 106.58,0 159.87,98.17 159.87,158 0,36.46 -19.63,47.68 -49.55,47.68 -59.83,0 -163.61,-46.74 -245.88,-46.74 -14.96,0 -28.98,0.93 -42.07,4.67zm-12.15 86.01c0,-24.31 2.81,-50.48 9.35,-75.73 13.09,-2.8 26.18,-4.67 40.2,-4.67 93.49,0 215.03,57.96 287.95,57.96 40.2,0 65.44,-16.83 65.44,-68.25 0,-101.91 -98.17,-168.28 -214.09,-168.28 -146.78,0 -247.75,107.52 -247.75,260.84 0,147.72 94.43,245.88 235.6,245.88 119.67,0 205.68,-70.12 241.21,-166.41l-3.74 -1.87c-41.14,87.88 -115.93,138.37 -208.49,138.37 -126.21,0 -205.68,-93.49 -205.68,-217.83zm589.93 -240.27l117.8 0 8.41 -9.35 -126.21 0 0 -159.87 -6.54 0c0,108.45 -61.7,159.87 -122.47,159.87l-11.22 0 -3.74 9.35 21.5 0c46.74,0 67.31,23.37 67.31,74.8l0 326.28c0,57.96 30.85,93.49 82.27,93.49 62.64,0 100.97,-54.22 111.26,-86.95l-2.81 -5.61c-9.35,19.63 -36.46,58.9 -78.53,58.9 -33.66,0 -57.03,-25.24 -57.03,-65.44l0 -395.47zm426.32 493.63c158,0 269.25,-108.45 269.25,-251.49 0,-143.04 -111.25,-260.84 -269.25,-260.84 -158,0 -269.26,117.8 -269.26,260.84 0,143.04 111.26,251.49 269.26,251.49zm0 -11.22c-140.24,0 -208.49,-111.26 -208.49,-241.21 0,-129.95 68.25,-250.56 208.49,-250.56 141.17,0 208.48,120.61 208.48,250.56 0,129.95 -67.31,241.21 -208.48,241.21zm381.44 -180.44c0,103.78 61.7,192.59 176.7,192.59 97.23,0 155.19,-62.64 171.09,-151.46l0 143.04 4.68 4.68 143.98 -27.11 0 -4.67 -93.49 0.93 0 -464.65 -4.67 -4.68 -143.98 27.11 0 4.67 93.49 -0.93 0 249.62c0,101.91 -54.22,192.59 -156.13,192.59 -85.07,0 -136.5,-62.64 -136.5,-169.22l0 -299.17 -4.67 -4.68 -134.63 27.11 0 4.67 84.14 -0.93 0 280.47zm769.44 -310.39c106.58,0 173.89,70.12 186.05,191.66l4.67 0 0 -160.81c-55.16,-1.87 -107.51,-41.13 -191.66,-41.13 -134.63,0 -262.71,100.04 -262.71,266.45 0,142.11 94.43,240.27 235.6,240.27 119.67,0 205.68,-70.12 241.21,-166.41l-3.74 -1.87c-41.14,87.88 -115.93,138.37 -208.49,138.37 -126.21,0 -205.68,-93.49 -205.68,-230.92 0,-136.5 78.54,-235.6 204.75,-235.6zm728.3 411.36l0 -205.68c0,-126.21 -61.7,-215.03 -176.7,-215.03 -97.23,0 -155.2,62.64 -171.09,151.46l0 -298.24 -4.67 -4.68 -143.98 27.11 0 4.67 93.49 -0.93 0 603.02 -93.49 16.83 0 4.67 242.14 0 0 -4.67 -93.49 -16.83 0 -260.84c0,-100.97 54.22,-190.72 156.13,-190.72 85.08,0 136.5,62.64 136.5,191.66l0 116.86c0,77.6 1.87,163.61 50.48,163.61 30.85,0 65.44,-35.53 88.82,-123.41l-5.61 -1.87c-15.89,53.29 -39.27,74.8 -57.03,74.8 -12.15,0 -21.5,-12.15 -21.5,-31.79z"/>
   <path class="fil5" d="M5534.81 7046.38l81.79 0c18.46,0 32.52,1.39 42.19,4.24 12.98,3.83 24.14,10.65 33.4,20.48 9.31,9.77 16.34,21.76 21.2,35.98 4.81,14.17 7.24,31.69 7.24,52.48 0,18.3 -2.28,34.02 -6.83,47.26 -5.53,16.18 -13.44,29.26 -23.73,39.24 -7.76,7.6 -18.25,13.49 -31.44,17.73 -9.87,3.15 -23.06,4.7 -39.6,4.7l-84.22 0 0 -222.1zm44.98 37.53l0 147.04 33.35 0c12.46,0 21.46,-0.72 26.99,-2.12 7.29,-1.81 13.29,-4.91 18.04,-9.26 4.81,-4.34 8.69,-11.48 11.69,-21.4 3.05,-9.93 4.55,-23.52 4.55,-40.69 0,-17.17 -1.5,-30.3 -4.55,-39.5 -3,-9.2 -7.24,-16.33 -12.67,-21.51 -5.43,-5.12 -12.31,-8.63 -20.68,-10.44 -6.2,-1.4 -18.46,-2.12 -36.65,-2.12l-20.06 0zm179.04 184.57l0 -222.1 164.41 0 0 37.53 -119.43 0 0 49.32 111.06 0 0 37.54 -111.06 0 0 60.18 123.77 0 0 37.54 -168.75 0zm195.12 -71.97l43.74 -4.34c2.64,14.63 7.91,25.33 15.93,32.21 8.01,6.87 18.82,10.29 32.41,10.29 14.37,0 25.23,-3.05 32.52,-9.15 7.29,-6.1 10.96,-13.23 10.96,-21.4 0,-5.28 -1.55,-9.72 -4.6,-13.44 -3.05,-3.67 -8.43,-6.88 -16.08,-9.57 -5.22,-1.86 -17.11,-5.07 -35.72,-9.72 -23.94,-6 -40.74,-13.34 -50.41,-22.07 -13.6,-12.25 -20.37,-27.19 -20.37,-44.82 0,-11.32 3.2,-21.97 9.56,-31.85 6.41,-9.88 15.61,-17.37 27.66,-22.54 12.05,-5.17 26.52,-7.76 43.58,-7.76 27.76,0 48.7,6.15 62.71,18.51 14.06,12.35 21.41,28.8 22.13,49.43l-44.98 1.55c-1.91,-11.48 -6,-19.7 -12.26,-24.71 -6.25,-5.02 -15.66,-7.55 -28.17,-7.55 -12.93,0 -23.06,2.69 -30.35,8.07 -4.7,3.46 -7.08,8.06 -7.08,13.85 0,5.28 2.22,9.77 6.67,13.5 5.64,4.81 19.34,9.77 41.1,14.94 21.77,5.12 37.85,10.49 48.24,15.97 10.44,5.54 18.61,13.03 24.51,22.59 5.89,9.56 8.84,21.35 8.84,35.36 0,12.72 -3.52,24.66 -10.6,35.78 -7.08,11.12 -17.06,19.39 -29.98,24.77 -12.93,5.43 -29.06,8.11 -48.34,8.11 -28.07,0 -49.63,-6.46 -64.68,-19.44 -15.04,-12.93 -23.99,-31.8 -26.93,-56.56zm217.14 71.97l0 -222.1 44.98 0 0 222.1 -44.98 0zm191.03 -81.58l0 -37.54 96.47 0 0 88.61c-9.36,9.15 -22.95,17.17 -40.79,24.15 -17.78,6.93 -35.83,10.39 -54.13,10.39 -23.21,0 -43.43,-4.86 -60.7,-14.63 -17.22,-9.77 -30.19,-23.78 -38.88,-41.93 -8.69,-18.15 -13.03,-37.95 -13.03,-59.3 0,-23.16 4.86,-43.74 14.53,-61.78 9.72,-17.99 23.89,-31.85 42.55,-41.46 14.27,-7.39 31.95,-11.07 53.15,-11.07 27.56,0 49.11,5.79 64.63,17.37 15.46,11.63 25.44,27.61 29.88,48.08l-44.67 8.38c-3.1,-10.91 -9,-19.54 -17.63,-25.9 -8.58,-6.31 -19.33,-9.46 -32.26,-9.46 -19.54,0 -35.11,6.2 -46.63,18.67 -11.53,12.46 -17.32,30.92 -17.32,55.37 0,26.42 5.84,46.22 17.53,59.41 11.73,13.18 27.04,19.8 46.01,19.8 9.36,0 18.77,-1.86 28.18,-5.53 9.46,-3.67 17.52,-8.17 24.3,-13.44l0 -28.18 -51.19 0zm137.99 81.58l0 -222.1 43.53 0 91.41 148.84 0 -148.84 41.57 0 0 222.1 -44.93 0 -90.01 -146 0 146 -41.57 0zm314.54 65.14l0 -290.97 33.5 0 0 290.97 -33.5 0zm168.65 -65.14l0 -222.1 71.91 0c27.25,0 44.98,1.08 53.25,3.31 12.72,3.36 23.37,10.6 31.95,21.77 8.58,11.17 12.87,25.59 12.87,43.27 0,13.65 -2.48,25.07 -7.39,34.38 -4.96,9.3 -11.22,16.59 -18.82,21.92 -7.6,5.28 -15.35,8.79 -23.21,10.5 -10.7,2.12 -26.16,3.2 -46.43,3.2l-29.16 0 0 83.76 -44.98 0zm44.98 -184.57l0 63.28 24.46 0c17.63,0 29.37,-1.19 35.31,-3.52 5.94,-2.33 10.6,-5.94 13.96,-10.96 3.36,-4.96 5.07,-10.7 5.07,-17.32 0,-8.12 -2.38,-14.79 -7.08,-20.06 -4.76,-5.27 -10.7,-8.58 -17.99,-9.93 -5.32,-0.98 -16.02,-1.5 -32.16,-1.5l-21.56 0zm161.93 184.57l0 -222.1 94.46 0c23.73,0 41,2.02 51.75,6 10.8,3.98 19.39,11.06 25.85,21.25 6.46,10.24 9.72,21.87 9.72,35 0,16.7 -4.86,30.45 -14.63,41.31 -9.77,10.85 -24.35,17.68 -43.79,20.52 9.67,5.63 17.63,11.84 23.89,18.61 6.31,6.77 14.79,18.81 25.44,36.09l27.09 43.32 -53.61 0 -32.16 -48.5c-11.53,-17.22 -19.44,-28.07 -23.73,-32.57 -4.24,-4.44 -8.74,-7.55 -13.49,-9.2 -4.81,-1.65 -12.36,-2.48 -22.7,-2.48l-9.1 0 0 92.75 -44.98 0zm44.98 -128.11l33.19 0c21.51,0 34.9,-0.93 40.28,-2.74 5.32,-1.81 9.56,-4.96 12.56,-9.41 3.05,-4.44 4.55,-10.03 4.55,-16.7 0,-7.5 -2.02,-13.5 -6,-18.15 -3.98,-4.6 -9.61,-7.5 -16.85,-8.69 -3.67,-0.52 -14.58,-0.78 -32.72,-0.78l-35 0 0 56.46zm177.49 128.11l0 -222.1 44.98 0 0 222.1 -44.98 0zm87.74 0l0 -222.1 43.53 0 91.41 148.84 0 -148.84 41.57 0 0 222.1 -44.93 0 -90.01 -146 0 146 -41.57 0zm273.96 0l0 -184.57 -65.76 0 0 -37.53 176.2 0 0 37.53 -65.45 0 0 184.57 -44.98 0z"/>
  </g>
 </g>
</svg>
