<?xml version="1.0" encoding="UTF-8"?>
<!DOCTYPE svg PUBLIC "-//W3C//DTD SVG 1.1//EN" "http://www.w3.org/Graphics/SVG/1.1/DTD/svg11.dtd">
<!-- Creator: CorelDRAW 2018 (64-Bit) -->
<svg xmlns="http://www.w3.org/2000/svg" xml:space="preserve" width="10in" height="10in" version="1.1" style="shape-rendering:geometricPrecision; text-rendering:geometricPrecision; image-rendering:optimizeQuality; fill-rule:evenodd; clip-rule:evenodd"
viewBox="0 0 10000 10000"
 xmlns:xlink="http://www.w3.org/1999/xlink">
 <defs>
  <style type="text/css">
   <![CDATA[
    .fil3 {fill:#999999}
    .fil1 {fill:#C29602}
    .fil2 {fill:#E6E6E6}
    .fil0 {fill:#F7C003}
    .fil4 {fill:black;fill-rule:nonzero}
   ]]>
  </style>
    <mask id="id0">
  <linearGradient id="id1" gradientUnits="userSpaceOnUse" x1="4058.86" y1="5528.5" x2="5699.17" y2="5517.3">
   <stop offset="0" style="stop-opacity:0; stop-color:white"/>
   <stop offset="1" style="stop-opacity:1; stop-color:white"/>
  </linearGradient>
     <rect style="fill:url(#id1)" x="4055.39" y="5362.7" width="2085.16" height="331.61"/>
    </mask>
    <mask id="id2">
  <linearGradient id="id3" gradientUnits="userSpaceOnUse" x1="4830.66" y1="4836.26" x2="4826.81" y2="3119.36">
   <stop offset="0" style="stop-opacity:0; stop-color:white"/>
   <stop offset="0.25098" style="stop-opacity:-127.502; stop-color:white"/>
   <stop offset="1" style="stop-opacity:1; stop-color:white"/>
  </linearGradient>
     <rect style="fill:url(#id3)" x="3569.02" y="3220.83" width="2370.54" height="1925.3"/>
    </mask>
    <mask id="id4">
  <linearGradient id="id5" gradientUnits="userSpaceOnUse" x1="6035.23" y1="3804.91" x2="6055.21" y2="4699.14">
   <stop offset="0" style="stop-opacity:0; stop-color:white"/>
   <stop offset="0.341176" style="stop-opacity:-127.502; stop-color:white"/>
   <stop offset="1" style="stop-opacity:1; stop-color:white"/>
  </linearGradient>
     <rect style="fill:url(#id5)" x="5889.41" y="3413.14" width="326.67" height="2279.99"/>
    </mask>
    <mask id="id6">
  <linearGradient id="id7" gradientUnits="userSpaceOnUse" x1="5291.19" y1="3454.84" x2="4945.92" y2="2997.9">
   <stop offset="0" style="stop-opacity:0; stop-color:white"/>
   <stop offset="0.658824" style="stop-opacity:-127.502; stop-color:white"/>
   <stop offset="1" style="stop-opacity:1; stop-color:white"/>
  </linearGradient>
     <rect style="fill:url(#id7)" x="4816.14" y="2774.77" width="2130.49" height="630.91"/>
    </mask>
 </defs>
 <g id="Layer_x0020_1">
  <metadata id="CorelCorpID_0Corel-Layer"/>
  <g id="_2431757520784">
   <path class="fil0" d="M4729.33 2676.12c0,0 -284.76,142.38 -207.32,484.58 0,0 61.25,249.17 413.44,364.07 0,0 -118.69,-5.85 -270.57,2.12 -210.73,11.04 -492.4,154.55 -578.72,542.42 0,0 -98.88,583.35 525.58,768.19 0,0 350.38,-2.62 437.81,-0.98 60.59,1.14 137.4,-1.39 220.44,1.14 36.45,1.11 73.26,9.28 110.06,18.48 119.89,29.96 744.52,140.14 757.02,834.54l-2100.7 0.16c0,0 -914.35,-272.68 -979.3,-1526.6 0,0 -39.96,-1084.06 959.18,-1483.72l713.08 -4.39z"/>
   <path class="fil1" style="mask:url(#id0)" d="M6075.91 5366.17c36.2,90.81 58.89,197.91 61.17,324.51l-2078.21 0.16 0 -324.67 2017.04 0z"/>
   <path class="fil1" style="mask:url(#id2)" d="M4548.16 3224.3c42.52,81.68 147.41,222.21 387.29,300.47 0,0 -118.69,-5.85 -270.57,2.12 -210.73,11.04 -492.4,154.55 -578.72,542.42 0,0 -93.88,598.33 525.58,768.19 0,0 350.38,-2.62 437.81,-0.98 60.59,1.14 137.4,-1.39 220.44,1.14 36.45,1.11 73.26,9.28 110.06,18.48 76.52,19.12 358.67,70.96 556.03,286.51l-1404.42 0c-527.54,0 -959.17,-431.63 -959.17,-959.18l0 0c0,-527.54 431.63,-959.17 959.17,-959.17l16.49 0z"/>
   <path class="fil2" d="M4971.7 2666.38c0,0 -359.7,56.2 -367.19,424.64 0,0 -14.72,307.31 330.64,431.6l381.89 -0.72 0.02 1238.94c0,0 820.17,41.59 819.96,928.81l65.14 0 0.39 -2000.38c0,0 21.87,-74.94 66.2,-104.29l291 0c0,0 317.21,-13.74 383.41,-427.13l0 -491.45 -1971.46 -0.02z"/>
   <path class="fil3" style="mask:url(#id4)" d="M5892.88 5020.84c136.94,137.69 244.21,347.91 244.13,668.81l65.14 0 0.39 -2000.38c0,0 3.34,-11.45 10.06,-27.15l0 -245.52 -319.72 0 0 1604.23z"/>
   <path class="fil3" style="mask:url(#id6)" d="M6855.5 3398.72c38.97,-59.39 71.13,-137.68 87.66,-240.87l0 -346.14c-39.09,-21.32 -83.83,-33.47 -131.26,-33.47l-1716.52 0c-151.67,0 -275.76,124.09 -275.76,275.76l0 72.44c0,151.67 124.09,275.76 275.76,275.76l1716.52 0c14.83,0 29.39,-1.2 43.6,-3.48z"/>
  </g>
  <path class="fil4" d="M2090.14 7022.26c-85.5,0 -150.4,-24.54 -194.89,-73.79 -44.49,-49.08 -66.65,-119.61 -66.65,-211.43 0,-93.7 23.2,-165.61 69.79,-215.89 46.41,-50.28 113.59,-75.51 201.52,-75.51 59.67,0 113.23,10.98 161.04,32.78l-36.3 95.25c-50.77,-19.39 -92.65,-29.18 -125.8,-29.18 -97.7,0 -146.56,63.84 -146.56,191.52 0,62.3 12.21,109.15 36.46,140.38 24.43,31.41 60.02,47.02 107.13,47.02 53.39,0 103.99,-13.04 151.79,-39.3l0 103.31c-21.46,12.53 -44.49,21.45 -68.74,26.77 -24.43,5.32 -53.92,8.06 -88.81,8.06zm539.82 -576.62c24.25,0 44.15,1.71 59.85,4.98l-11.87 110.17c-16.93,-3.94 -34.72,-6 -53.04,-6 -47.98,0 -86.89,15.44 -116.72,46.16 -29.83,30.89 -44.67,71.05 -44.67,120.3l0 290.71 -120.22 0 0 -556.03 94.04 0 15.88 97.82 6.1 0c18.67,-33.12 43.28,-59.55 73.28,-78.94 30.19,-19.39 62.64,-29.17 97.36,-29.17zm353.31 576.62c-87.93,0 -156.68,-25.22 -206.23,-75.68 -49.56,-50.45 -74.33,-120.13 -74.33,-208.68 0,-90.78 23.03,-162.35 68.92,-214.35 46.06,-52 109.22,-77.91 189.66,-77.91 74.5,0 133.48,22.31 176.74,66.93 43.27,44.62 64.91,106.06 64.91,184.31l0 63.84 -376.52 0c1.57,53.89 16.4,95.42 44.31,124.42 28.09,29 67.35,43.42 118.12,43.42 33.32,0 64.38,-3.09 93.17,-9.27 28.79,-6.18 59.84,-16.47 92.82,-30.89l0 96.11c-29.31,13.73 -58.97,23.51 -88.98,29.17 -29.84,5.66 -64.21,8.58 -102.59,8.58zm-21.98 -487.04c-38.21,0 -68.74,11.84 -91.78,35.7 -23.03,23.85 -36.64,58.69 -41.18,104.34l256.48 0c-0.7,-45.99 -11.86,-80.83 -33.67,-104.51 -21.81,-23.69 -51.82,-35.53 -89.85,-35.53zm694.59 476.74l-24.08 -77.22 -4.01 0c-27.22,33.81 -54.61,56.97 -82.35,69.16 -27.57,12.19 -62.98,18.36 -106.26,18.36 -55.48,0 -98.93,-14.76 -129.98,-44.28 -31.24,-29.52 -46.76,-71.22 -46.76,-125.28 0,-57.32 21.63,-100.57 64.9,-129.74 43.27,-29.18 109.22,-45.13 197.68,-47.71l97.71 -3.09 0 -29.69c0,-35.52 -8.55,-62.12 -25.3,-79.8 -16.93,-17.68 -43.09,-26.43 -78.51,-26.43 -28.96,0 -56.71,4.12 -83.23,12.53 -26.69,8.41 -52.17,18.36 -76.77,29.69l-38.74 -84.43c30.54,-15.79 64.21,-27.8 100.67,-36.04 36.47,-8.24 70.84,-12.35 103.12,-12.35 72.06,0 126.32,15.44 162.78,46.33 36.64,30.72 54.96,79.28 54.96,145.35l0 374.63 -85.84 0zm-178.84 -80.31c43.62,0 78.69,-12.01 105.04,-36.04 26.35,-24.02 39.61,-57.66 39.61,-100.91l0 -48.39 -72.58 3.09c-56.53,1.89 -97.7,11.32 -123.35,27.97 -25.82,16.47 -38.73,42.04 -38.73,76.2 0,24.88 7.5,44.1 22.51,57.66 15,13.56 37.51,20.42 67.52,20.42zm605.6 -5.15c29.31,0 58.63,-4.46 87.94,-13.56l0 89.24c-13.26,5.67 -30.53,10.47 -51.47,14.24 -20.93,3.95 -42.57,5.83 -65.08,5.83 -113.76,0 -170.63,-59.04 -170.63,-177.1l0 -299.64 -77.3 0 0 -52.34 82.87 -43.25 40.83 -117.56 74.15 0 0 123.56 161.05 0 0 89.58 -161.05 0 0 297.58c0,28.49 7.15,49.42 21.63,62.98 14.48,13.56 33.5,20.42 57.06,20.42zm283.7 85.46l-120.04 0 0 -556.03 120.04 0 0 556.03zm-127.19 -703.27c0,-21.11 5.76,-37.41 17.62,-48.74 11.69,-11.5 28.44,-17.16 50.25,-17.16 21.11,0 37.69,5.67 49.38,17.16 11.69,11.33 17.63,27.63 17.63,48.74 0,20.08 -5.94,35.87 -17.63,47.54 -11.69,11.5 -28.27,17.33 -49.38,17.33 -21.81,0 -38.56,-5.83 -50.25,-17.33 -11.86,-11.67 -17.62,-27.46 -17.62,-47.54zm390.29 703.27l-214.6 -556.03 126.85 0 114.8 323.32c19.89,54.23 31.75,98.17 35.77,131.63l4.19 0c2.96,-24.03 15,-67.96 35.77,-131.63l114.98 -323.32 127.71 0 -215.65 556.03 -129.81 0zm641.02 10.3c-87.93,0 -156.68,-25.22 -206.23,-75.68 -49.55,-50.45 -74.33,-120.13 -74.33,-208.68 0,-90.78 23.03,-162.35 68.92,-214.35 46.06,-52 109.22,-77.91 189.65,-77.91 74.5,0 133.48,22.31 176.75,66.93 43.27,44.62 64.91,106.06 64.91,184.31l0 63.84 -376.52 0c1.57,53.89 16.4,95.42 44.31,124.42 28.09,29 67.35,43.42 118.12,43.42 33.32,0 64.38,-3.09 93.17,-9.27 28.79,-6.18 59.84,-16.47 92.82,-30.89l0 96.11c-29.31,13.73 -58.97,23.51 -88.98,29.17 -29.84,5.66 -64.21,8.58 -102.59,8.58zm-21.99 -487.04c-38.21,0 -68.74,11.84 -91.77,35.7 -23.03,23.85 -36.64,58.69 -41.18,104.34l256.48 0c-0.7,-45.99 -11.86,-80.83 -33.67,-104.51 -21.81,-23.69 -51.82,-35.53 -89.86,-35.53zm551.52 391.28c29.31,0 58.62,-4.46 87.94,-13.56l0 89.24c-13.26,5.67 -30.54,10.47 -51.47,14.24 -20.93,3.95 -42.57,5.83 -65.08,5.83 -113.76,0 -170.63,-59.04 -170.63,-177.1l0 -299.64 -77.3 0 0 -52.34 82.88 -43.25 40.83 -117.56 74.15 0 0 123.56 161.04 0 0 89.58 -161.04 0 0 297.58c0,28.49 7.15,49.42 21.63,62.98 14.48,13.56 33.5,20.42 57.06,20.42zm665.1 -193.58c0,90.96 -23.73,161.83 -71.01,212.8 -47.46,50.97 -113.41,76.54 -197.85,76.54 -52.87,0 -99.63,-11.67 -140.11,-35.18 -40.65,-23.51 -71.89,-57.15 -93.69,-101.25 -21.81,-43.93 -32.63,-94.9 -32.63,-152.91 0,-90.27 23.56,-160.63 70.49,-211.26 47.11,-50.63 113.41,-76.02 198.9,-76.02 81.83,0 146.56,25.91 194.37,77.74 47.63,51.83 71.54,121.67 71.54,209.54zm-411.59 0c0,128.37 48.15,192.55 144.64,192.55 95.61,0 143.24,-64.19 143.24,-192.55 0,-127 -47.98,-190.49 -144.12,-190.49 -50.6,0 -87.07,16.48 -109.74,49.25 -22.69,32.78 -34.02,79.97 -34.02,141.24zm911.11 279.04l-16.92 -72.76 -6.11 0c-16.75,25.91 -40.48,46.17 -71.36,60.92 -30.88,14.76 -66.13,22.14 -105.56,22.14 -68.57,0 -119.69,-16.81 -153.54,-50.28 -33.67,-33.46 -50.6,-84.26 -50.6,-152.39l0 -363.65 121.09 0 0 342.88c0,42.56 8.9,74.48 26.7,95.76 17.62,21.28 45.54,31.92 83.4,31.92 50.42,0 87.59,-14.76 111.14,-44.45 23.73,-29.69 35.59,-79.46 35.59,-149.13l0 -276.98 120.74 0 0 556.03 -94.57 0zm456.08 10.3c-85.49,0 -150.4,-24.54 -194.89,-73.79 -44.5,-49.08 -66.65,-119.61 -66.65,-211.43 0,-93.7 23.21,-165.61 69.79,-215.89 46.41,-50.28 113.58,-75.51 201.52,-75.51 59.67,0 113.23,10.98 161.04,32.78l-36.29 95.25c-50.77,-19.39 -92.65,-29.18 -125.8,-29.18 -97.7,0 -146.56,63.84 -146.56,191.52 0,62.3 12.21,109.15 36.46,140.38 24.42,31.41 60.02,47.02 107.13,47.02 53.39,0 103.99,-13.04 151.8,-39.3l0 103.31c-21.46,12.53 -44.49,21.45 -68.74,26.77 -24.43,5.32 -53.91,8.06 -88.81,8.06zm750.76 -10.3l-120.56 0 0 -341.85c0,-42.9 -8.9,-74.82 -26.35,-95.93 -17.62,-21.11 -45.54,-31.75 -83.75,-31.75 -50.43,0 -87.59,14.76 -111.14,44.45 -23.73,29.69 -35.59,79.46 -35.59,149.13l0 275.95 -120.22 0 0 -782.56 120.22 0 0 198.73c0,31.75 -2.09,65.73 -6.11,101.94l7.68 0c16.4,-26.77 39.08,-47.54 68.22,-62.3 29.14,-14.76 63.16,-22.14 102.07,-22.14 136.96,0 205.53,67.96 205.53,203.7l0 362.62z"/>
  <g id="_2431757519312">
   <path class="fil4" d="M6303.3 7332.43c0,32.54 -9.31,57.45 -27.93,74.67 -18.67,17.22 -45.57,25.83 -80.63,25.83l-56.92 0 0 -197.21 62.91 0c32.4,0 57.58,8.47 75.59,25.37 18,16.89 26.98,40.69 26.98,71.35zm-35.06 1.15c0,-47.19 -22.76,-70.8 -68.37,-70.8l-28.79 0 0 143.08 23.66 0c48.98,0 73.5,-24.08 73.5,-72.28zm183.68 99.34l-115.12 0 0 -197.21 115.12 0 0 27.34 -81.81 0 0 53.59 76.64 0 0 27.07 -76.64 0 0 61.87 81.81 0 0 27.35zm151.22 -53.49c0,17.54 -6.5,31.3 -19.62,41.29 -13.06,9.99 -31.12,14.96 -54.16,14.96 -23.04,0 -41.85,-3.45 -56.54,-10.41l0 -30.57c9.31,4.24 19.15,7.55 29.6,9.99 10.45,2.44 20.14,3.64 29.17,3.64 13.21,0 22.9,-2.44 29.17,-7.27 6.27,-4.83 9.41,-11.33 9.41,-19.48 0,-7.36 -2.9,-13.63 -8.65,-18.73 -5.75,-5.16 -17.63,-11.19 -35.63,-18.23 -18.58,-7.27 -31.65,-15.61 -39.29,-24.95 -7.6,-9.35 -11.4,-20.58 -11.4,-33.7 0,-16.48 6.03,-29.41 18.1,-38.85 12.07,-9.44 28.27,-14.18 48.6,-14.18 19.48,0 38.87,4.15 58.2,12.39l-10.59 26.28c-18.1,-7.37 -34.26,-11.05 -48.46,-11.05 -10.78,0 -18.96,2.26 -24.52,6.81 -5.56,4.56 -8.36,10.54 -8.36,18.04 0,5.11 1.14,9.48 3.37,13.17 2.23,3.64 5.89,7.04 10.98,10.31 5.13,3.22 14.3,7.5 27.6,12.8 14.92,6.03 25.89,11.65 32.83,16.85 6.98,5.25 12.07,11.14 15.35,17.68 3.23,6.58 4.84,14.31 4.84,23.2zm29.17 53.49l0 -197.21 33.26 0 0 197.21 -33.26 0zm160.07 -106.89l74.87 0 0 99.02c-12.26,3.87 -23.99,6.58 -35.25,8.19 -11.31,1.61 -23.47,2.44 -36.54,2.44 -30.83,0 -54.59,-8.84 -71.26,-26.52 -16.72,-17.68 -25.09,-42.58 -25.09,-74.8 0,-31.72 9.45,-56.58 28.27,-74.48 18.86,-17.96 44.76,-26.93 77.82,-26.93 21.24,0 41.38,3.96 60.39,11.88l-11.69 26.79c-16.54,-7.37 -33.02,-11.05 -49.56,-11.05 -21.71,0 -38.87,6.63 -51.5,19.84 -12.59,13.21 -18.91,31.26 -18.91,54.18 0,24.07 5.7,42.4 17.06,54.92 11.35,12.57 27.7,18.83 49.03,18.83 10.78,0 22.28,-1.29 34.54,-3.91l0 -50.78 -42.19 0 0 -27.62zm283.06 106.89l-40.81 0 -100.01 -157.16 -1.14 0 0.72 8.79c1.28,16.71 1.94,32 1.94,45.85l0 102.52 -30.22 0 0 -197.21 40.38 0 99.78 156.33 0.81 0c-0.19,-2.07 -0.57,-9.57 -1.09,-22.6 -0.57,-12.98 -0.85,-23.11 -0.85,-30.39l0 -103.35 30.5 0 0 197.21z"/>
   <polygon class="fil4" points="7232.15,7197.17 7257.24,7197.17 7257.24,7471.44 7232.15,7471.44 "/>
   <path class="fil4" d="M7548.78 7295.37c0,20.58 -6.94,36.37 -20.86,47.32 -13.92,11 -33.73,16.48 -59.43,16.48l-21.15 0 0 73.75 -33.26 0 0 -197.21 58.59 0c25.41,0 44.47,5.02 57.1,15.1 12.69,10.08 19.01,24.95 19.01,44.56zm-101.44 36.74l17.67 0c17.06,0 29.6,-2.9 37.58,-8.66 7.94,-5.75 11.93,-14.73 11.93,-26.98 0,-11.32 -3.56,-19.75 -10.69,-25.32 -7.13,-5.57 -18.3,-8.38 -33.4,-8.38l-23.09 0 0 69.33zm165.24 -4.7l23.09 0c15.49,0 26.7,-2.76 33.63,-8.33 6.99,-5.57 10.46,-13.86 10.46,-24.77 0,-11.14 -3.76,-19.15 -11.26,-23.98 -7.51,-4.83 -18.86,-7.28 -33.97,-7.28l-21.95 0 0 64.36zm0 26.79l0 78.72 -33.31 0 0 -197.21 57.49 0c26.27,0 45.7,4.79 58.3,14.31 12.63,9.53 18.95,23.94 18.95,43.18 0,24.54 -13.2,42.08 -39.53,52.48l57.44 87.24 -37.87 0 -48.65 -78.72 -32.83 0zm138.73 78.72l0 -197.21 33.26 0 0 197.21 -33.26 0zm246.34 0l-40.81 0 -100.01 -157.16 -1.14 0 0.72 8.79c1.28,16.71 1.94,32 1.94,45.85l0 102.52 -30.22 0 0 -197.21 40.39 0 99.77 156.33 0.81 0c-0.19,-2.07 -0.57,-9.57 -1.09,-22.6 -0.57,-12.98 -0.85,-23.11 -0.85,-30.39l0 -103.35 30.5 0 0 197.21zm113.88 0l-33.26 0 0 -169.59 -59.87 0 0 -27.62 152.99 0 0 27.62 -59.87 0 0 169.59z"/>
  </g>
 </g>
</svg>
